HIERARCHY
ROOT Hips
{
	OFFSET 0.000000 0.000000 0.000000
	CHANNELS 6 Xposition Yposition Zposition Xrotation Yrotation Zrotation
	JOINT LeftUpLeg_virtual
	{
		OFFSET 0.000000 0.000000 0.000000
		CHANNELS 3 Xrotation Yrotation Zrotation
		JOINT LeftUpLeg
		{
			OFFSET 13.026900 -6.336304 -1.092800
			CHANNELS 3 Xrotation Yrotation Zrotation
			JOINT LeftLeg
			{
				OFFSET 0.524474 -46.096886 9.782700
				CHANNELS 3 Xrotation Yrotation Zrotation
				JOINT LeftFoot
				{
					OFFSET -0.524474 -53.427422 -12.948200
					CHANNELS 3 Xrotation Yrotation Zrotation
					JOINT LeftToeBase
					{
						OFFSET 0.192200 -14.009700 16.364100
						CHANNELS 3 Xrotation Yrotation Zrotation
						JOINT LeftToe_End
						{
							OFFSET -1.784700 -0.561700 9.474800
							CHANNELS 3 Xrotation Yrotation Zrotation
							End Site
							{
								OFFSET 0 0 0
							}
						}
					}
				}
			}
		}
	}
	JOINT RightUpLeg_virtual
	{
		OFFSET 0.000000 0.000000 0.000000
		CHANNELS 3 Xrotation Yrotation Zrotation
		JOINT RightUpLeg
		{
			OFFSET -12.883000 -6.336304 -1.092800
			CHANNELS 3 Xrotation Yrotation Zrotation
			JOINT RightLeg
			{
				OFFSET -0.524587 -46.096825 9.782800
				CHANNELS 3 Xrotation Yrotation Zrotation
				JOINT RightFoot
				{
					OFFSET 0.524587 -53.427383 -12.948300
					CHANNELS 3 Xrotation Yrotation Zrotation
					JOINT RightToeBase
					{
						OFFSET -0.192200 -14.009700 16.364100
						CHANNELS 3 Xrotation Yrotation Zrotation
						JOINT RightToe_End
						{
							OFFSET 1.784700 -0.561700 9.474800
							CHANNELS 3 Xrotation Yrotation Zrotation
							End Site
							{
								OFFSET 0 0 0
							}
						}
					}
				}
			}
		}
	}
	JOINT Spine_virtual
	{
		OFFSET 0.000000 0.000000 0.000000
		CHANNELS 3 Xrotation Yrotation Zrotation
		JOINT Spine
		{
			OFFSET 0.072000 7.257294 -0.789700
			CHANNELS 3 Xrotation Yrotation Zrotation
			JOINT Spine1
			{
				OFFSET 0.000000 12.508769 -0.658067
				CHANNELS 3 Xrotation Yrotation Zrotation
				JOINT Spine1_split
				{
					OFFSET 0.000000 12.508769 -0.658067
					CHANNELS 3 Xrotation Yrotation Zrotation
					JOINT Spine2
					{
						OFFSET 0.000000 12.508769 -0.658067
						CHANNELS 3 Xrotation Yrotation Zrotation
						JOINT Neck_virtual
						{
							OFFSET 0.000000 0.000000 0.000000
							CHANNELS 3 Xrotation Yrotation Zrotation
							JOINT Neck
							{
								OFFSET 0.000000 14.033295 7.520400
								CHANNELS 3 Xrotation Yrotation Zrotation
								JOINT Head
								{
									OFFSET 0.000000 8.198502 5.703100
									CHANNELS 3 Xrotation Yrotation Zrotation
									JOINT HeadTop_End
									{
										OFFSET 0.000000 17.760803 13.332701
										CHANNELS 3 Xrotation Yrotation Zrotation
										End Site
										{
											OFFSET 0 0 0
										}
									}
								}
							}
						}
						JOINT LeftShoulder_virtual
						{
							OFFSET 0.000000 0.000000 0.000000
							CHANNELS 3 Xrotation Yrotation Zrotation
							JOINT LeftShoulder
							{
								OFFSET 6.292450 5.785301 -0.669000
								CHANNELS 3 Xrotation Yrotation Zrotation
								JOINT LeftShoulder_split
								{
									OFFSET 6.292450 5.785301 -0.669000
									CHANNELS 3 Xrotation Yrotation Zrotation
									JOINT LeftArm
									{
										OFFSET 13.907140 -6.093903 1.965100
										CHANNELS 3 Xrotation Yrotation Zrotation
										JOINT LeftForeArm
										{
											OFFSET 34.140198 0.000000 0.000000
											CHANNELS 3 Xrotation Yrotation Zrotation
											JOINT LeftHand
											{
												OFFSET 40.960209 0.000000 0.000000
												CHANNELS 3 Xrotation Yrotation Zrotation
												End Site
												{
													OFFSET 0 0 0
												}
											}
										}
									}
								}
							}
						}
						JOINT RightShoulder_virtual
						{
							OFFSET 0.000000 0.000000 0.000000
							CHANNELS 3 Xrotation Yrotation Zrotation
							JOINT RightShoulder
							{
								OFFSET -6.292450 5.785301 -0.669000
								CHANNELS 3 Xrotation Yrotation Zrotation
								JOINT RightShoulder_split
								{
									OFFSET -6.292450 5.785301 -0.669000
									CHANNELS 3 Xrotation Yrotation Zrotation
									JOINT RightArm
									{
										OFFSET -13.907140 -6.093903 1.965100
										CHANNELS 3 Xrotation Yrotation Zrotation
										JOINT RightForeArm
										{
											OFFSET -34.140198 0.000000 0.000000
											CHANNELS 3 Xrotation Yrotation Zrotation
											JOINT RightHand
											{
												OFFSET -40.960209 0.000000 0.000000
												CHANNELS 3 Xrotation Yrotation Zrotation
												End Site
												{
													OFFSET 0 0 0
												}
											}
										}
									}
								}
							}
						}
					}
				}
			}
		}
	}
}
MOTION
Frames: 4
Frame Time: 0.03333333
2.758117 191.049011 393.348450 0.000000 0.000000 0.000000 12.558876 -39.012080 27.524844 -70.431060 -0.027383 6.468906 92.948179 16.606381 6.436005 -21.915330 8.745367 -8.887113 -0.406468 -0.272560 -3.171754 0.000000 0.000000 0.000000 11.066342 -35.789211 24.067232 -90.549334 -15.948703 -6.554183 73.948853 4.383619 6.881669 32.538564 16.360904 3.331441 -8.066148 0.968936 -0.784806 0.000000 0.000000 0.000000 12.161203 -30.517343 24.878455 34.754212 1.267604 -28.391157 13.213065 0.178854 -3.243751 1.564201 -0.546230 0.305755 0.000000 0.000000 0.000000 17.928613 -1.063509 -0.101315 -3.307389 12.887629 -13.504980 -38.613686 -5.246009 0.309713 0.000000 0.000000 0.000000 16.769527 -0.175010 -1.096147 3.332907 -16.921485 -4.030187 1.974931 -3.032938 -0.943368 -87.367299 2.709522 -5.443782 10.121135 -57.767711 6.959233 0.000000 0.000000 0.000000 17.189609 -1.087247 -0.995022 5.768919 28.099403 -0.420204 -1.012357 4.812859 6.302060 -65.042833 -9.556050 41.183483 -82.857202 23.919900 58.922785 0.000000 0.000000 0.000000 
1.858806 186.736084 407.867859 0.000000 0.000000 0.000000 12.070812 -33.591144 25.316057 -64.173247 2.085221 10.929647 83.535461 16.048322 6.075585 -26.496911 9.622797 -5.233455 -1.404087 -0.394797 -3.672144 0.000000 0.000000 0.000000 13.397431 -33.972862 23.412263 -86.096884 -18.667762 -7.752665 50.652621 -0.708777 9.077257 32.139906 13.996149 3.933117 -7.196502 1.365696 -1.288405 0.000000 0.000000 0.000000 13.248886 -28.597094 24.140313 35.520054 1.546697 -26.298619 12.625371 -0.157496 -3.208777 2.540708 0.135528 0.184473 0.000000 0.000000 0.000000 17.488013 -1.380270 -0.310942 -3.928953 13.427555 -15.580684 -42.051067 -5.927245 0.996809 0.000000 0.000000 0.000000 16.234853 -0.545835 -1.217441 3.431027 -15.194442 -4.842593 1.840400 -3.909158 -0.945839 -86.082916 -0.571874 -3.520857 0.223386 -57.707039 -1.272890 0.000000 0.000000 0.000000 16.583435 -1.574641 -1.199408 5.264420 26.484472 1.563493 -0.084392 3.529866 6.729794 -60.277164 -9.418518 42.956702 -84.478061 25.930110 62.903331 0.000000 0.000000 0.000000 
0.743629 178.551895 421.445679 0.000000 0.000000 0.000000 11.125816 -26.879634 22.999772 -62.049373 3.311693 15.377138 74.120345 13.590179 5.964081 -28.574501 8.012644 -3.345055 -2.563880 -0.545562 -3.244235 0.000000 0.000000 0.000000 15.280359 -30.709890 23.101047 -78.948039 -17.392112 -9.118232 30.963795 -4.445119 8.657587 31.562448 10.632713 4.845049 -4.756602 1.603277 -1.099486 0.000000 0.000000 0.000000 13.957453 -26.632202 23.394791 34.753980 2.091032 -23.984730 11.711386 -0.578283 -2.832790 2.785681 0.262126 0.143143 0.000000 0.000000 0.000000 16.461352 -1.645015 -0.108725 -3.692894 13.358127 -17.303246 -44.209564 -5.248320 1.400190 0.000000 0.000000 0.000000 15.445436 -0.863839 -0.776433 3.434432 -12.203122 -5.157676 2.786437 -4.742643 -1.093523 -84.501106 -1.416994 -1.875278 -7.333275 -58.812136 -7.673239 0.000000 0.000000 0.000000 15.771023 -1.980285 -0.938679 4.930741 24.813796 3.731943 -0.301557 3.066836 6.869060 -52.281236 -8.261271 44.325790 -84.471914 27.972287 66.247760 0.000000 0.000000 0.000000 
0.248634 167.396255 434.892578 0.000000 0.000000 0.000000 10.936490 -21.485134 21.387966 -62.937208 2.709773 18.940174 65.820088 10.254329 5.757828 -27.992053 5.234710 -2.955902 -2.797416 -0.715418 -2.462416 0.000000 0.000000 0.000000 15.842875 -26.456818 22.635730 -69.919923 -12.101029 -10.478177 20.184068 -4.479958 7.352981 30.974963 8.062729 7.903803 -3.050165 1.662193 -0.673132 0.000000 0.000000 0.000000 14.564183 -24.877222 22.743360 32.877078 2.619903 -21.687635 10.438837 -1.101675 -2.305739 1.951168 0.539079 0.294720 0.000000 0.000000 0.000000 14.972958 -1.890007 0.361547 -2.407933 12.738805 -18.308006 -44.502866 -3.323996 1.586752 0.000000 0.000000 0.000000 14.432034 -1.159348 0.008578 3.345800 -8.899047 -5.050993 4.586190 -4.830429 -1.233709 -83.164957 0.568811 -0.168408 -14.090190 -61.181023 -13.706655 0.000000 0.000000 0.000000 14.822646 -2.305753 -0.335351 4.691720 23.285532 5.888413 -1.184066 3.216989 7.006333 -41.645347 -7.157230 44.877785 -83.609582 30.289881 69.221208 0.000000 0.000000 0.000000 
